<svg xmlns="http://www.w3.org/2000/svg" viewBox="0 0 24 24" fill="currentColor" class="w-6 h-6">
  <path d="M12 2.25c-5.385 0-9.75 4.365-9.75 9.75s4.365 9.75 9.75 9.75 9.75-4.365 9.75-9.75S17.385 2.25 12 2.25z" fill="#10b981" />
  <path fill-rule="evenodd" d="M12 21a9 9 0 100-18 9 9 0 000 18zM9.5 8.25a.75.75 0 00-1.5 0v3a.75.75 0 001.5 0v-3zM12 6.75a.75.75 0 01.75.75v3a.75.75 0 01-1.5 0v-3A.75.75 0 0112 6.75zM14.5 8.25a.75.75 0 00-1.5 0v3a.75.75 0 001.5 0v-3zm.75 5.5a.75.75 0 01.75-.75h.01a.75.75 0 01.75.75v.01a.75.75 0 01-.75.75h-.01a.75.75 0 01-.75-.75v-.01zM14.25 12a.75.75 0 000 1.5h.01a.75.75 0 000-1.5h-.01zM12 13.75a.75.75 0 01.75-.75h.01a.75.75 0 01.75.75v.01a.75.75 0 01-.75.75h-.01a.75.75 0 01-.75-.75v-.01zM9.75 12a.75.75 0 000 1.5h.01a.75.75 0 000-1.5h-.01zM8.25 13.75a.75.75 0 01.75-.75h.01a.75.75 0 01.75.75v.01a.75.75 0 01-.75.75h-.01a.75.75 0 01-.75-.75v-.01zM9.75 15.75a.75.75 0 00-1.5 0v.01a.75.75 0 001.5 0v-.01zM12 15a.75.75 0 01.75.75v.01a.75.75 0 01-1.5 0v-.01a.75.75 0 01.75-.75zm2.25.75a.75.75 0 00-1.5 0v.01a.75.75 0 001.5 0v-.01z" clip-rule="evenodd" fill="#ffffff" />
</svg>
